<?xml version="1.0" encoding="UTF-8" standalone="no"?>
<!DOCTYPE svg PUBLIC "-//W3C//DTD SVG 1.1//EN"
 "http://www.w3.org/Graphics/SVG/1.1/DTD/svg11.dtd">
<!-- Generated by graphviz version 2.40.1 (20161225.0304)
 -->
<!-- Title: models_diagram Pages: 1 -->
<svg width="294pt" height="296pt"
 viewBox="0.00 0.00 293.50 296.00" xmlns="http://www.w3.org/2000/svg" xmlns:xlink="http://www.w3.org/1999/xlink">
<g id="graph0" class="graph" transform="scale(1 1) rotate(0) translate(36 260)">
<title>models_diagram</title>
<polygon fill="#ffffff" stroke="transparent" points="-36,36 -36,-260 257.5,-260 257.5,36 -36,36"/>
<!-- Task -->
<g id="node1" class="node">
<title>Task</title>
<polygon fill="#add8e6" stroke="transparent" points=".5,-176 .5,-198 99.5,-198 99.5,-176 .5,-176"/>
<polygon fill="none" stroke="#000000" points=".5,-176 .5,-198 99.5,-198 99.5,-176 .5,-176"/>
<text text-anchor="start" x="40.2815" y="-185" font-family="Times,serif" font-weight="bold" font-size="10.00" fill="#000000">Task</text>
<polygon fill="none" stroke="#000000" points=".5,-154 .5,-176 99.5,-176 99.5,-154 .5,-154"/>
<text text-anchor="start" x="5.5" y="-163" font-family="Times,serif" text-decoration="underline" font-size="10.00" fill="#000000">seq</text>
<text text-anchor="start" x="18.828" y="-163" font-family="Times,serif" font-size="10.00" fill="#000000">: NUMBER</text>
<polygon fill="none" stroke="#000000" points=".5,-132 .5,-154 99.5,-154 99.5,-132 .5,-132"/>
<text text-anchor="start" x="5.5" y="-140" font-family="Times,serif" font-size="10.00" fill="#000000">id: STRING</text>
<polygon fill="none" stroke="#000000" points=".5,-110 .5,-132 99.5,-132 99.5,-110 .5,-110"/>
<text text-anchor="start" x="5.5" y="-118" font-family="Times,serif" font-size="10.00" fill="#000000">name: STRING</text>
<polygon fill="none" stroke="#000000" points=".5,-88 .5,-110 99.5,-110 99.5,-88 .5,-88"/>
<text text-anchor="start" x="5.432" y="-96" font-family="Times,serif" font-size="10.00" fill="#000000">reminder: BOOLEAN</text>
<polygon fill="none" stroke="#000000" points=".5,-66 .5,-88 99.5,-88 99.5,-66 .5,-66"/>
<text text-anchor="start" x="5.5" y="-74" font-family="Times,serif" font-size="10.00" fill="#000000">date: STRING</text>
<polygon fill="none" stroke="#000000" points=".5,-44 .5,-66 99.5,-66 99.5,-44 .5,-44"/>
<text text-anchor="start" x="5.5" y="-52" font-family="Times,serif" font-size="10.00" fill="#000000">recordStatus: ENUM</text>
<polygon fill="none" stroke="#000000" points=".5,-22 .5,-44 99.5,-44 99.5,-22 .5,-22"/>
<text text-anchor="start" x="5.5" y="-30" font-family="Times,serif" font-size="10.00" fill="#000000">createdAt: DATE</text>
<polygon fill="none" stroke="#000000" points=".5,0 .5,-22 99.5,-22 99.5,0 .5,0"/>
<text text-anchor="start" x="5.5" y="-8" font-family="Times,serif" font-size="10.00" fill="#000000">updatedAt: DATE</text>
</g>
<!-- Users -->
<g id="node2" class="node">
<title>Users</title>
<polygon fill="#add8e6" stroke="transparent" points="127.5,-202 127.5,-224 221.5,-224 221.5,-202 127.5,-202"/>
<polygon fill="none" stroke="#000000" points="127.5,-202 127.5,-224 221.5,-224 221.5,-202 127.5,-202"/>
<text text-anchor="start" x="163.1175" y="-211" font-family="Times,serif" font-weight="bold" font-size="10.00" fill="#000000">Users</text>
<polygon fill="none" stroke="#000000" points="127.5,-180 127.5,-202 221.5,-202 221.5,-180 127.5,-180"/>
<text text-anchor="start" x="132.5" y="-189" font-family="Times,serif" text-decoration="underline" font-size="10.00" fill="#000000">seq</text>
<text text-anchor="start" x="145.828" y="-189" font-family="Times,serif" font-size="10.00" fill="#000000">: NUMBER</text>
<polygon fill="none" stroke="#000000" points="127.5,-158 127.5,-180 221.5,-180 221.5,-158 127.5,-158"/>
<text text-anchor="start" x="132.5" y="-166" font-family="Times,serif" font-size="10.00" fill="#000000">id: STRING</text>
<polygon fill="none" stroke="#000000" points="127.5,-136 127.5,-158 221.5,-158 221.5,-136 127.5,-136"/>
<text text-anchor="start" x="132.5" y="-144" font-family="Times,serif" font-size="10.00" fill="#000000">taskId: STRING</text>
<polygon fill="none" stroke="#000000" points="127.5,-114 127.5,-136 221.5,-136 221.5,-114 127.5,-114"/>
<text text-anchor="start" x="132.5" y="-122" font-family="Times,serif" font-size="10.00" fill="#000000">user: JSON</text>
<polygon fill="none" stroke="#000000" points="127.5,-92 127.5,-114 221.5,-114 221.5,-92 127.5,-92"/>
<text text-anchor="start" x="132.152" y="-100" font-family="Times,serif" font-size="10.00" fill="#000000">recordStatus: ENUM</text>
<polygon fill="none" stroke="#000000" points="127.5,-70 127.5,-92 221.5,-92 221.5,-70 127.5,-70"/>
<text text-anchor="start" x="132.5" y="-78" font-family="Times,serif" font-size="10.00" fill="#000000">createdAt: DATE</text>
<polygon fill="none" stroke="#000000" points="127.5,-48 127.5,-70 221.5,-70 221.5,-48 127.5,-48"/>
<text text-anchor="start" x="132.5" y="-56" font-family="Times,serif" font-size="10.00" fill="#000000">updatedAt: DATE</text>
</g>
</g>
</svg>
