<?xml version="1.0" encoding="UTF-8" standalone="no"?>
<!DOCTYPE svg PUBLIC "-//W3C//DTD SVG 1.1//EN"
 "http://www.w3.org/Graphics/SVG/1.1/DTD/svg11.dtd">
<!-- Generated by graphviz version 2.40.1 (20161225.0304)
 -->
<!-- Title: models_diagram Pages: 1 -->
<svg width="300pt" height="280pt"
 viewBox="0.00 0.00 299.50 280.00" xmlns="http://www.w3.org/2000/svg" xmlns:xlink="http://www.w3.org/1999/xlink">
<g id="graph0" class="graph" transform="scale(1 1) rotate(0) translate(36 244)">
<title>models_diagram</title>
<polygon fill="#ffffff" stroke="transparent" points="-36,36 -36,-244 263.5,-244 263.5,36 -36,36"/>
<!-- delivary -->
<g id="node1" class="node">
<title>delivary</title>
<polygon fill="#add8e6" stroke="transparent" points="129,-186 129,-208 228,-208 228,-186 129,-186"/>
<polygon fill="none" stroke="#000000" points="129,-186 129,-208 228,-208 228,-186 129,-186"/>
<text text-anchor="start" x="162.1175" y="-195" font-family="Times,serif" font-weight="bold" font-size="10.00" fill="#000000">delivary</text>
<polygon fill="none" stroke="#000000" points="129,-164 129,-186 228,-186 228,-164 129,-164"/>
<text text-anchor="start" x="134" y="-173" font-family="Times,serif" text-decoration="underline" font-size="10.00" fill="#000000">seq</text>
<text text-anchor="start" x="147.328" y="-173" font-family="Times,serif" font-size="10.00" fill="#000000">: NUMBER</text>
<polygon fill="none" stroke="#000000" points="129,-142 129,-164 228,-164 228,-142 129,-142"/>
<text text-anchor="start" x="134" y="-150" font-family="Times,serif" font-size="10.00" fill="#000000">id: STRING</text>
<polygon fill="none" stroke="#000000" points="129,-120 129,-142 228,-142 228,-120 129,-120"/>
<text text-anchor="start" x="134" y="-128" font-family="Times,serif" font-size="10.00" fill="#000000">resturantId: STRING</text>
<polygon fill="none" stroke="#000000" points="129,-98 129,-120 228,-120 228,-98 129,-98"/>
<text text-anchor="start" x="133.927" y="-106" font-family="Times,serif" font-size="10.00" fill="#000000">delivaryPerson: JSON</text>
<polygon fill="none" stroke="#000000" points="129,-76 129,-98 228,-98 228,-76 129,-76"/>
<text text-anchor="start" x="134" y="-84" font-family="Times,serif" font-size="10.00" fill="#000000">recordStatus: ENUM</text>
<polygon fill="none" stroke="#000000" points="129,-54 129,-76 228,-76 228,-54 129,-54"/>
<text text-anchor="start" x="134" y="-62" font-family="Times,serif" font-size="10.00" fill="#000000">createdAt: DATE</text>
<polygon fill="none" stroke="#000000" points="129,-32 129,-54 228,-54 228,-32 129,-32"/>
<text text-anchor="start" x="134" y="-40" font-family="Times,serif" font-size="10.00" fill="#000000">updatedAt: DATE</text>
</g>
<!-- resturant -->
<g id="node2" class="node">
<title>resturant</title>
<polygon fill="#add8e6" stroke="transparent" points="0,-176 0,-198 94,-198 94,-176 0,-176"/>
<polygon fill="none" stroke="#000000" points="0,-176 0,-198 94,-198 94,-176 0,-176"/>
<text text-anchor="start" x="29.5085" y="-185" font-family="Times,serif" font-weight="bold" font-size="10.00" fill="#000000">resturant</text>
<polygon fill="none" stroke="#000000" points="0,-154 0,-176 94,-176 94,-154 0,-154"/>
<text text-anchor="start" x="5" y="-163" font-family="Times,serif" text-decoration="underline" font-size="10.00" fill="#000000">seq</text>
<text text-anchor="start" x="18.328" y="-163" font-family="Times,serif" font-size="10.00" fill="#000000">: NUMBER</text>
<polygon fill="none" stroke="#000000" points="0,-132 0,-154 94,-154 94,-132 0,-132"/>
<text text-anchor="start" x="5" y="-140" font-family="Times,serif" font-size="10.00" fill="#000000">id: STRING</text>
<polygon fill="none" stroke="#000000" points="0,-110 0,-132 94,-132 94,-110 0,-110"/>
<text text-anchor="start" x="5" y="-118" font-family="Times,serif" font-size="10.00" fill="#000000">name: STRING</text>
<polygon fill="none" stroke="#000000" points="0,-88 0,-110 94,-110 94,-88 0,-88"/>
<text text-anchor="start" x="5" y="-96" font-family="Times,serif" font-size="10.00" fill="#000000">service: STRING</text>
<polygon fill="none" stroke="#000000" points="0,-66 0,-88 94,-88 94,-66 0,-66"/>
<text text-anchor="start" x="5" y="-74" font-family="Times,serif" font-size="10.00" fill="#000000">created: STRING</text>
<polygon fill="none" stroke="#000000" points="0,-44 0,-66 94,-66 94,-44 0,-44"/>
<text text-anchor="start" x="4.652" y="-52" font-family="Times,serif" font-size="10.00" fill="#000000">recordStatus: ENUM</text>
<polygon fill="none" stroke="#000000" points="0,-22 0,-44 94,-44 94,-22 0,-22"/>
<text text-anchor="start" x="5" y="-30" font-family="Times,serif" font-size="10.00" fill="#000000">createdAt: DATE</text>
<polygon fill="none" stroke="#000000" points="0,0 0,-22 94,-22 94,0 0,0"/>
<text text-anchor="start" x="5" y="-8" font-family="Times,serif" font-size="10.00" fill="#000000">updatedAt: DATE</text>
</g>
</g>
</svg>
